<svg preserveAspectRatio="none" overflow="visible" style="display: block;" width="32" height="32" viewBox="0 0 32 32" fill="none" xmlns="http://www.w3.org/2000/svg">
<g id="Vector">
<path d="M0 2.72868C0 1.22167 1.22167 0 2.72868 0H29.2713C30.7783 0 32 1.22167 32 2.72868V29.2713C32 30.7783 30.7783 32 29.2713 32H2.72868C1.22167 32 0 30.7783 0 29.2713V2.72868Z" fill="black"/>
<path d="M10.828 7.93794C11.4914 7.92568 12.1539 7.99342 12.801 8.13968C13.3458 8.25815 13.8631 8.47859 14.3253 8.78928C14.7522 9.09824 15.0899 9.5136 15.3047 9.99367C15.5515 10.584 15.6706 11.2195 15.6541 11.8588C15.6821 12.5607 15.5021 13.2552 15.1366 13.856C14.752 14.4233 14.2203 14.8765 13.5981 15.1673C14.4425 15.394 15.178 15.9134 15.6723 16.6319C16.1469 17.3933 16.3854 18.2771 16.358 19.1728C16.3737 19.887 16.2254 20.5952 15.9245 21.2437C15.6464 21.8093 15.2392 22.3023 14.7355 22.6831C14.2169 23.0597 13.6333 23.3383 13.0137 23.5052C12.3711 23.6822 11.7073 23.7711 11.0407 23.7695H3.72093V7.93794H10.828ZM10.4056 14.3412C10.9269 14.3626 11.44 14.2071 11.8611 13.9004C12.0627 13.7216 12.2196 13.4983 12.3191 13.2484C12.4186 12.9984 12.4581 12.7288 12.4343 12.4609C12.4478 12.1481 12.3853 11.8367 12.252 11.5531C12.139 11.3273 11.9632 11.1386 11.7456 11.0094C11.5252 10.8672 11.2776 10.7721 11.0184 10.73C10.7372 10.6758 10.451 10.6511 10.1646 10.6564H7.03694V14.3553H10.4056V14.3412ZM10.5879 21.0813C10.9032 21.0855 11.2178 21.0517 11.5248 20.9804C11.8054 20.9187 12.0715 20.804 12.3087 20.6425C12.5411 20.4811 12.7289 20.2639 12.8546 20.011C13.0005 19.6886 13.0674 19.3364 13.0501 18.9832C13.0817 18.6613 13.0389 18.3365 12.925 18.0337C12.8111 17.7309 12.629 17.458 12.3928 17.2361C11.8922 16.8689 11.2786 16.687 10.6578 16.7217H7.03694V21.0813H10.5879Z" fill="white"/>
<path d="M21.0809 21.0228C21.3411 21.2631 21.6477 21.4481 21.982 21.5667C22.3163 21.6853 22.6713 21.735 23.0255 21.7128C23.587 21.7269 24.1375 21.5568 24.5924 21.2286C24.9624 20.989 25.2426 20.6344 25.3895 20.2199H28.034C27.7522 21.3999 27.0641 22.4442 26.0893 23.1713C25.1542 23.7895 24.0491 24.1025 22.9273 24.0671C22.1266 24.0775 21.332 23.9276 20.5907 23.6263C19.92 23.3477 19.3186 22.9267 18.8283 22.3926C18.3399 21.833 17.9647 21.1846 17.7233 20.4832C17.4524 19.6991 17.3198 18.8742 17.3314 18.0451C17.3264 17.2299 17.4635 16.42 17.7365 15.6515C18.1033 14.5703 18.8045 13.6326 19.7396 12.9729C20.6747 12.3133 21.7956 11.9656 22.9414 11.9798C23.7874 11.9622 24.6239 12.1594 25.3722 12.5528C26.0486 12.9222 26.6321 13.4395 27.0789 14.0658C27.5358 14.723 27.8634 15.4607 28.0441 16.2396C28.2423 17.0759 28.313 17.9373 28.2538 18.7946H20.377C20.3131 19.6001 20.5655 20.3988 21.0809 21.0228ZM24.5367 15.0019C24.3162 14.7823 24.0511 14.6123 23.7592 14.5034C23.4672 14.3945 23.1552 14.3492 22.8442 14.3705C22.4316 14.3548 22.0219 14.4458 21.6552 14.6347C21.3644 14.7942 21.1077 15.0087 20.8996 15.2662C20.7151 15.5076 20.5777 15.7813 20.4944 16.0731C20.4194 16.3165 20.3725 16.5676 20.3547 16.8216H25.2335C25.191 16.1595 24.9488 15.5257 24.5387 15.0029L24.5367 15.0019Z" fill="white"/>
<path d="M25.8392 8.9951H19.7257V10.5515H25.8392V8.9951Z" fill="white"/>
</g>
</svg>
